<?xml version="1.0" encoding="UTF-8" standalone="no"?>
<!DOCTYPE svg PUBLIC "-//W3C//DTD SVG 1.1//EN" "http://www.w3.org/Graphics/SVG/1.1/DTD/svg11.dtd">
<svg width="100%" height="100%" viewBox="0 0 20 20" version="1.1" xmlns="http://www.w3.org/2000/svg" xmlns:xlink="http://www.w3.org/1999/xlink" xml:space="preserve" xmlns:serif="http://www.serif.com/" style="fill-rule:evenodd;clip-rule:evenodd;stroke-linejoin:round;stroke-miterlimit:2;">
    <g transform="matrix(0.0438001,0,0,0.0438001,-4.01604,-4.05336)">
        <path d="M129.593,446.805C105.642,410.688 91.69,367.387 91.69,320.852C91.69,194.844 193.992,92.542 320,92.542C446.008,92.542 548.31,194.844 548.31,320.852C548.31,446.86 446.008,549.162 320,549.162C272.634,549.162 228.617,534.706 192.134,509.977L127.958,527.534C123.292,528.811 118.3,527.477 114.893,524.043C111.485,520.609 110.19,515.606 111.503,510.95L129.593,446.805Z" style="fill:rgb(34,34,34);"/>
    </g>
    <g transform="matrix(0.0641695,0,0,0.0641695,-13.6939,-7.72707)">
        <g transform="matrix(1,0,0,1,-11,0)">
            <path d="M318.917,242.799C318.917,237.262 314.422,232.767 308.885,232.767C303.348,232.767 298.853,237.262 298.853,242.799L298.853,309.709C298.853,315.245 303.348,319.741 308.885,319.741C314.422,319.741 318.917,315.245 318.917,309.709L318.917,242.799Z" style="fill:rgb(235,235,235);"/>
        </g>
        <g transform="matrix(1,0,0,1.39933,24.6773,-110.317)">
            <path d="M318.917,239.936C318.917,235.98 314.422,232.767 308.885,232.767C303.348,232.767 298.853,235.98 298.853,239.936L298.853,312.571C298.853,316.528 303.348,319.741 308.885,319.741C314.422,319.741 318.917,316.528 318.917,312.571L318.917,239.936Z" style="fill:rgb(235,235,235);"/>
        </g>
        <g transform="matrix(1,0,0,1.8895,96.032,-245.727)">
            <path d="M318.917,238.077C318.917,235.146 314.422,232.767 308.885,232.767C303.348,232.767 298.853,235.146 298.853,238.077L298.853,314.431C298.853,317.362 303.348,319.741 308.885,319.741C314.422,319.741 318.917,317.362 318.917,314.431L318.917,238.077Z" style="fill:rgb(235,235,235);"/>
        </g>
        <g transform="matrix(1,0,0,0.924977,60.3547,20.7254)">
            <path d="M318.917,243.613C318.917,237.627 314.422,232.767 308.885,232.767C303.348,232.767 298.853,237.627 298.853,243.613L298.853,308.895C298.853,314.881 303.348,319.741 308.885,319.741C314.422,319.741 318.917,314.881 318.917,308.895L318.917,243.613Z" style="fill:rgb(235,235,235);"/>
        </g>
        <g transform="matrix(1,0,0,0.709681,131.709,80.2016)">
            <path d="M318.917,246.903C318.917,239.101 314.422,232.767 308.885,232.767C303.348,232.767 298.853,239.101 298.853,246.903L298.853,305.605C298.853,313.407 303.348,319.741 308.885,319.741C314.422,319.741 318.917,313.407 318.917,305.605L318.917,246.903Z" style="fill:rgb(235,235,235);"/>
        </g>
    </g>
</svg>
