<?xml version="1.0" encoding="UTF-8" standalone="no"?>
<!DOCTYPE svg PUBLIC "-//W3C//DTD SVG 1.1//EN" "http://www.w3.org/Graphics/SVG/1.1/DTD/svg11.dtd">
<svg width="100%" height="100%" viewBox="0 0 72 25" version="1.1" xmlns="http://www.w3.org/2000/svg" xmlns:xlink="http://www.w3.org/1999/xlink" xml:space="preserve" xmlns:serif="http://www.serif.com/" style="fill-rule:evenodd;clip-rule:evenodd;stroke-linejoin:round;stroke-miterlimit:2;">
    <g transform="matrix(0.19685,0,0,0.19507,-25.686,-13.7689)">
        <g transform="matrix(1,0,0,1,0,-133.831)">
            <path d="M374.406,251.815C371.04,258.254 356.878,285.234 345.668,304.834C332.856,327.235 314.654,318.494 310.968,305.803C305.151,285.776 285.505,218.142 285.505,218.142L314.751,218.142L330.662,280.455C330.662,280.455 337.135,267.018 350.284,242.394C363.433,217.771 367.567,218.142 370.272,218.142L380.022,218.142C382.727,218.142 386.86,217.771 400.01,242.394C413.159,267.018 419.632,280.455 419.632,280.455L435.543,218.142L464.788,218.142C464.788,218.142 445.143,285.776 439.326,305.803C435.64,318.494 417.438,327.235 404.626,304.834C391.814,282.433 375.147,250.394 375.147,250.394L374.406,251.815Z" style="fill:rgb(34,34,34);"/>
        </g>
        <g transform="matrix(1,0,0,1,-3,-133.831)">
            <path d="M255.176,278.128L260.923,278.128C266.841,278.128 271.646,282.932 271.646,288.851C271.646,294.769 266.841,298.573 260.923,298.573L164.943,298.573L174.943,318.848L270.295,318.848C286.852,318.848 300.293,305.407 300.293,288.851C300.293,272.294 286.852,258.853 270.295,258.853L210.059,258.853L210.059,258.862L204.313,258.862C198.395,258.862 193.59,254.057 193.59,248.139C193.59,242.221 198.395,238.416 204.313,238.416L285.739,238.416L278.606,218.142L194.94,218.142C178.384,218.142 164.943,231.583 164.943,248.139C164.943,264.695 178.384,278.137 194.94,278.137L255.176,278.137L255.176,278.128Z" style="fill:rgb(34,34,34);"/>
        </g>
    </g>
</svg>
