<?xml version="1.0" encoding="UTF-8" standalone="no"?>
<!DOCTYPE svg PUBLIC "-//W3C//DTD SVG 1.1//EN" "http://www.w3.org/Graphics/SVG/1.1/DTD/svg11.dtd">
<svg width="100%" height="100%" viewBox="0 0 20 20" version="1.1" xmlns="http://www.w3.org/2000/svg" xmlns:xlink="http://www.w3.org/1999/xlink" xml:space="preserve" xmlns:serif="http://www.serif.com/" style="fill-rule:evenodd;clip-rule:evenodd;stroke-linejoin:round;stroke-miterlimit:2;">
    <g transform="matrix(0.0438001,0,0,0.0438001,-4.01604,-4.05336)">
        <g transform="matrix(1.47332,0,0,1.10345,-224.009,15.1686)">
            <path d="M409.449,204.118C409.449,198.581 404.954,194.086 399.417,194.086C393.88,194.086 389.385,198.581 389.385,204.118L389.385,348.39C389.385,353.927 393.88,358.422 399.417,358.422C404.954,358.422 409.449,353.927 409.449,348.39L409.449,204.118ZM349.095,225.434C349.095,219.897 344.599,215.402 339.062,215.402C333.526,215.402 329.03,219.897 329.03,225.434L329.03,327.074C329.03,332.611 333.526,337.106 339.062,337.106C344.599,337.106 349.095,332.611 349.095,327.074L349.095,225.434ZM318.917,242.799C318.917,237.262 314.422,232.767 308.885,232.767C303.348,232.767 298.853,237.262 298.853,242.799L298.853,309.709C298.853,315.245 303.348,319.741 308.885,319.741C314.422,319.741 318.917,315.245 318.917,309.709L318.917,242.799ZM379.272,246.062C379.272,240.525 374.777,236.03 369.24,236.03C363.703,236.03 359.208,240.525 359.208,246.062L359.208,306.446C359.208,311.983 363.703,316.478 369.24,316.478C374.777,316.478 379.272,311.983 379.272,306.446L379.272,246.062ZM439.627,255.424C439.627,249.887 435.131,245.392 429.595,245.392C424.058,245.392 419.563,249.887 419.563,255.424L419.563,297.084C419.563,302.62 424.058,307.116 429.595,307.116C435.131,307.116 439.627,302.62 439.627,297.084L439.627,255.424Z" style="fill:rgb(34,34,32);"/>
        </g>
        <path d="M129.593,446.805C105.642,410.688 91.69,367.387 91.69,320.852C91.69,194.844 193.992,92.542 320,92.542C446.008,92.542 548.31,194.844 548.31,320.852C548.31,446.86 446.008,549.162 320,549.162C272.634,549.162 228.617,534.706 192.134,509.977L127.958,527.534C123.292,528.811 118.3,527.477 114.893,524.043C111.485,520.609 110.19,515.606 111.503,510.95L129.593,446.805ZM320,163.544C406.82,163.544 477.308,234.032 477.308,320.852C477.308,407.672 406.82,478.16 320,478.16C233.18,478.16 162.692,407.672 162.692,320.852C162.692,234.032 233.18,163.544 320,163.544Z" style="fill:rgb(34,34,34);"/>
    </g>
</svg>
